<svg width="69" height="40" viewBox="0 0 69 40" fill="none" xmlns="http://www.w3.org/2000/svg">
<path d="M6.89322 31.3095C5.36174 31.4787 3.92404 32.1315 2.7888 33.1733C1.65356 34.2151 0.879893 35.5915 0.580088 37.1029C0.165742 39.0992 0.158205 39.2349 0 39.9882C13.018 38.1048 58.6037 31.4451 68.6761 30.0213L69 28.2283C58.3099 29.0495 8.19652 31.1212 6.89322 31.3095Z" fill="#E31B23"/>
<path d="M21.6213 10.9161V10.8483C24.258 10.095 25.6367 8.14379 25.6367 5.17557C25.6367 1.78546 23.8588 0 19.0976 0H7.79719L3.23938 23.5424H15.9033C20.6947 23.5424 24.9436 21.2823 24.9436 15.6246C24.9285 13.455 23.6403 11.3757 21.6213 10.9161ZM15.2253 17.9525H10.9236L11.7824 13.568H15.4438C16.8525 13.568 18.0504 13.8316 18.0504 15.5794C18.0805 17.493 16.4231 17.9525 15.2253 17.9525ZM16.4307 9.18343H12.6187L13.3268 5.62758H16.7621C17.9675 5.62758 18.8565 5.89126 18.8565 7.30757C18.8565 8.72388 17.508 9.18343 16.4307 9.18343Z" fill="#0067AC"/>
<path d="M28.3262 0L27.166 6.03439H33.2456L29.863 23.5424H36.6207L39.9957 6.03439H46.0753L47.243 0H28.3262Z" fill="#0067AC"/>
<path d="M62.5739 0L60.1179 12.8598H60.0577L55.9368 0H49.247L44.7042 23.5424H51.1153L53.6692 10.3587H53.7295L57.7524 23.5424H64.3819L68.9925 0H62.5739Z" fill="#0067AC"/>
</svg>
